<?xml version="1.0" encoding="utf-8"?>
<!-- Generator: Adobe Illustrator 18.1.1, SVG Export Plug-In . SVG Version: 6.00 Build 0)  -->
<svg version="1.1" xmlns="http://www.w3.org/2000/svg" xmlns:xlink="http://www.w3.org/1999/xlink" x="0px" y="0px"
	 viewBox="0 0 1200 600" enable-background="new 0 0 1200 600" xml:space="preserve">
<g id="Layer_4">
</g>
<g id="Layer_3">
</g>
<g id="Layer_5">
	<g>
		
			<path fill="none" stroke="#FFFFFF" stroke-width="3" stroke-linecap="round" stroke-linejoin="round" stroke-dasharray="3.9623,5.9434" d="
			M920.8,424c0,49.2,23.3,67.6,51.9,67.6c28.7,0,51.9-18.4,51.9-67.6s-23.3-99.7-51.9-99.7C944,324.3,920.8,374.8,920.8,424z"/>
	</g>
	<g>
		
			<path fill="none" stroke="#FFFFFF" stroke-width="3" stroke-linecap="round" stroke-linejoin="round" stroke-dasharray="3.9936,5.9904" d="
			M763.9,440.5c0,37.2,17.6,51.1,39.3,51.1c21.7,0,39.3-13.9,39.3-51.1s-17.6-75.4-39.3-75.4C781.5,365.1,763.9,403.3,763.9,440.5z"
			/>
	</g>
	<g>
		
			<path fill="none" stroke="#FFFFFF" stroke-width="3" stroke-linecap="round" stroke-linejoin="round" stroke-dasharray="3.9723,5.9585" d="
			M253.2,385.5c0,56-26.5,77-59.2,77s-59.2-21-59.2-77s26.5-113.6,59.2-113.6S253.2,329.5,253.2,385.5z"/>
	</g>
	<g>
		
			<path fill="none" stroke="#FFFFFF" stroke-width="3" stroke-linecap="round" stroke-linejoin="round" stroke-dasharray="3.959,5.9385" d="
			M313,411.6c0,48,22.7,66,50.7,66s50.7-18,50.7-66s-22.7-97.3-50.7-97.3S313,363.6,313,411.6z"/>
	</g>
	<g>
		
			<path fill="none" stroke="#FFFFFF" stroke-width="3" stroke-linecap="round" stroke-linejoin="round" stroke-dasharray="3.9821,5.9731" d="
			M63.3,409.9c0,42.7,20.2,58.7,45.1,58.7s45.1-16,45.1-58.7s-20.2-86.5-45.1-86.5S63.3,367.2,63.3,409.9z"/>
	</g>
	<g>
		<g>
			
				<line fill="none" stroke="#FFFFFF" stroke-width="3" stroke-linecap="round" stroke-linejoin="round" x1="363.7" y1="399.9" x2="363.7" y2="401.9"/>
			
				<line fill="none" stroke="#FFFFFF" stroke-width="3" stroke-linecap="round" stroke-linejoin="round" stroke-dasharray="4.0597,6.0895" x1="363.7" y1="408" x2="363.7" y2="547"/>
			
				<line fill="none" stroke="#FFFFFF" stroke-width="3" stroke-linecap="round" stroke-linejoin="round" x1="363.7" y1="550.1" x2="363.7" y2="552.1"/>
		</g>
	</g>
	<g>
		<g>
			
				<line fill="none" stroke="#FFFFFF" stroke-width="3" stroke-linecap="round" stroke-linejoin="round" x1="194.1" y1="367.2" x2="194.1" y2="369.2"/>
			
				<line fill="none" stroke="#FFFFFF" stroke-width="3" stroke-linecap="round" stroke-linejoin="round" stroke-dasharray="4.1104,6.1656" x1="194.1" y1="375.4" x2="194.1" y2="547"/>
			
				<line fill="none" stroke="#FFFFFF" stroke-width="3" stroke-linecap="round" stroke-linejoin="round" x1="194.1" y1="550.1" x2="194.1" y2="552.1"/>
		</g>
	</g>
	<g>
		<g>
			
				<line fill="none" stroke="#FFFFFF" stroke-width="3" stroke-linecap="round" stroke-linejoin="round" x1="972.7" y1="407.9" x2="972.7" y2="409.9"/>
			
				<line fill="none" stroke="#FFFFFF" stroke-width="3" stroke-linecap="round" stroke-linejoin="round" stroke-dasharray="4.1214,6.182" x1="972.7" y1="416.1" x2="972.7" y2="547"/>
			
				<line fill="none" stroke="#FFFFFF" stroke-width="3" stroke-linecap="round" stroke-linejoin="round" x1="972.7" y1="550.1" x2="972.7" y2="552.1"/>
		</g>
	</g>
	<g>
		<g>
			
				<line fill="none" stroke="#FFFFFF" stroke-width="3" stroke-linecap="round" stroke-linejoin="round" x1="803.2" y1="428.4" x2="803.2" y2="430.4"/>
			
				<line fill="none" stroke="#FFFFFF" stroke-width="3" stroke-linecap="round" stroke-linejoin="round" stroke-dasharray="4.1283,6.1924" x1="803.2" y1="436.5" x2="803.2" y2="547"/>
			
				<line fill="none" stroke="#FFFFFF" stroke-width="3" stroke-linecap="round" stroke-linejoin="round" x1="803.2" y1="550.1" x2="803.2" y2="552.1"/>
		</g>
	</g>
	<g>
		<g>
			
				<line fill="none" stroke="#FFFFFF" stroke-width="3" stroke-linecap="round" stroke-linejoin="round" x1="108.4" y1="395.9" x2="108.4" y2="397.9"/>
			
				<line fill="none" stroke="#FFFFFF" stroke-width="3" stroke-linecap="round" stroke-linejoin="round" stroke-dasharray="3.9343,5.9015" x1="108.4" y1="403.8" x2="108.4" y2="548.4"/>
			
				<line fill="none" stroke="#FFFFFF" stroke-width="3" stroke-linecap="round" stroke-linejoin="round" x1="108.4" y1="551.4" x2="108.4" y2="553.4"/>
		</g>
	</g>
	<g>
		
			<path fill="none" stroke="#FFFFFF" stroke-width="3" stroke-linecap="round" stroke-linejoin="round" stroke-dasharray="3.9821,5.9731" d="
			M1079.9,409.9c0,42.7,20.2,58.7,45.1,58.7s45.1-16,45.1-58.7s-20.2-86.5-45.1-86.5S1079.9,367.2,1079.9,409.9z"/>
	</g>
	<g>
		
			<path fill="none" stroke="#FFFFFF" stroke-width="3" stroke-linecap="round" stroke-linejoin="round" stroke-dasharray="3.9936,5.9904" d="
			M1010.8,440.5c0,37.2,17.6,51.1,39.3,51.1s39.3-13.9,39.3-51.1s-17.6-75.4-39.3-75.4S1010.8,403.3,1010.8,440.5z"/>
	</g>
	<g>
		<g>
			
				<line fill="none" stroke="#FFFFFF" stroke-width="3" stroke-linecap="round" stroke-linejoin="round" x1="1050" y1="428.3" x2="1050" y2="430.3"/>
			
				<line fill="none" stroke="#FFFFFF" stroke-width="3" stroke-linecap="round" stroke-linejoin="round" stroke-dasharray="4.1283,6.1924" x1="1050" y1="436.5" x2="1050" y2="546.9"/>
			
				<line fill="none" stroke="#FFFFFF" stroke-width="3" stroke-linecap="round" stroke-linejoin="round" x1="1050" y1="550" x2="1050" y2="552"/>
		</g>
	</g>
	<g>
		<g>
			
				<line fill="none" stroke="#FFFFFF" stroke-width="3" stroke-linecap="round" stroke-linejoin="round" x1="1125" y1="395.9" x2="1125" y2="397.9"/>
			
				<line fill="none" stroke="#FFFFFF" stroke-width="3" stroke-linecap="round" stroke-linejoin="round" stroke-dasharray="3.9343,5.9015" x1="1125" y1="403.8" x2="1125" y2="548.4"/>
			
				<line fill="none" stroke="#FFFFFF" stroke-width="3" stroke-linecap="round" stroke-linejoin="round" x1="1125" y1="551.4" x2="1125" y2="553.4"/>
		</g>
	</g>
	<g>
		
			<rect x="705.2" y="361.6" fill="#F7EB93" stroke="#DBB705" stroke-width="2" stroke-linecap="round" stroke-linejoin="round" stroke-miterlimit="10" width="14.1" height="21.3"/>
		
			<rect x="480.8" y="361.6" fill="#F7EB93" stroke="#DBB705" stroke-width="2" stroke-linecap="round" stroke-linejoin="round" stroke-miterlimit="10" width="14.1" height="21.3"/>
		
			<rect x="705.2" y="470" fill="#F7EB93" stroke="#DBB705" stroke-width="2" stroke-linecap="round" stroke-linejoin="round" stroke-miterlimit="10" width="14.1" height="84.6"/>
		
			<rect x="480.8" y="470" fill="#F7EB93" stroke="#DBB705" stroke-width="2" stroke-linecap="round" stroke-linejoin="round" stroke-miterlimit="10" width="14.1" height="84.6"/>
		
			<rect x="534.2" y="517.6" fill="#F7EB93" stroke="#DBB705" stroke-width="2" stroke-linecap="round" stroke-linejoin="round" stroke-miterlimit="10" width="51.7" height="6.5"/>
		
			<rect x="483.4" y="383" fill="none" stroke="#DBB705" stroke-width="2" stroke-linecap="round" stroke-linejoin="round" stroke-miterlimit="10" width="8.8" height="87"/>
		
			<rect x="707.8" y="383" fill="none" stroke="#DBB705" stroke-width="2" stroke-linecap="round" stroke-linejoin="round" stroke-miterlimit="10" width="8.8" height="87"/>
		
			<rect x="494.9" y="363.9" fill="none" stroke="#DBB705" stroke-width="2" stroke-linecap="round" stroke-linejoin="round" stroke-miterlimit="10" width="210.3" height="8.4"/>
		
			<line fill="none" stroke="#DBB705" stroke-width="0.75" stroke-linecap="round" stroke-linejoin="round" stroke-miterlimit="10" x1="664.4" y1="517.6" x2="664.4" y2="373.4"/>
		
			<line fill="none" stroke="#DBB705" stroke-width="0.75" stroke-linecap="round" stroke-linejoin="round" stroke-miterlimit="10" x1="615.5" y1="373.4" x2="615.5" y2="517.6"/>
		
			<line fill="none" stroke="#DBB705" stroke-width="0.75" stroke-linecap="round" stroke-linejoin="round" stroke-miterlimit="10" x1="584.5" y1="517.6" x2="584.5" y2="373.4"/>
		
			<line fill="none" stroke="#DBB705" stroke-width="0.75" stroke-linecap="round" stroke-linejoin="round" stroke-miterlimit="10" x1="535.6" y1="373.4" x2="535.6" y2="517.6"/>
		
			<rect x="614.1" y="517.6" fill="#F7EB93" stroke="#DBB705" stroke-width="2" stroke-linecap="round" stroke-linejoin="round" stroke-miterlimit="10" width="51.7" height="6.5"/>
	</g>
	<text transform="matrix(1 0 0 1 527.2095 498.9375)" font-family="'Lato-Regular'" font-size="19.0086">&lt;input&gt;</text>
	<text transform="matrix(1 0 0 1 603.611 498.9375)" font-family="'Lato-Regular'" font-size="19.0086">&lt;/input&gt;</text>
</g>
</svg>
