<?xml version="1.0" encoding="utf-8"?>
<!-- Generator: Adobe Illustrator 18.1.1, SVG Export Plug-In . SVG Version: 6.00 Build 0)  -->
<svg version="1.1" xmlns="http://www.w3.org/2000/svg" xmlns:xlink="http://www.w3.org/1999/xlink" x="0px" y="0px"
	 viewBox="0 0 1200 600" enable-background="new 0 0 1200 600" xml:space="preserve">
<g id="Layer_4">
</g>
<g id="Layer_3">
	<g>
		
			<path fill="none" stroke="#FFFFFF" stroke-width="3" stroke-linecap="round" stroke-linejoin="round" stroke-dasharray="3.9533,5.9299" d="
			M1034.7,440c0,41.3,19.5,56.7,43.6,56.7s43.6-15.4,43.6-56.7s-19.5-83.6-43.6-83.6S1034.7,398.7,1034.7,440z"/>
	</g>
	<g>
		
			<path fill="none" stroke="#FFFFFF" stroke-width="3" stroke-linecap="round" stroke-linejoin="round" stroke-dasharray="4.0123,6.0184" d="
			M1109.5,458.4c0,36.2,17.1,49.8,38.3,49.8s38.3-13.5,38.3-49.8s-17.1-73.4-38.3-73.4S1109.5,422.2,1109.5,458.4z"/>
	</g>
	<g>
		
			<path fill="none" stroke="#FFFFFF" stroke-width="3" stroke-linecap="round" stroke-linejoin="round" stroke-dasharray="4.0443,6.0664" d="
			M993.9,470.6c0,27.4,12.9,37.6,28.9,37.6c16,0,28.9-10.2,28.9-37.6c0-27.4-12.9-55.5-28.9-55.5
			C1006.9,415.1,993.9,443.2,993.9,470.6z"/>
	</g>
	<g>
		
			<path fill="none" stroke="#FFFFFF" stroke-width="3" stroke-linecap="round" stroke-linejoin="round" stroke-dasharray="3.9533,5.9299" d="
			M764.1,430.1c0,41.3-19.5,56.7-43.6,56.7s-43.6-15.4-43.6-56.7s19.5-83.6,43.6-83.6S764.1,388.8,764.1,430.1z"/>
	</g>
	<g>
		
			<path fill="none" stroke="#FFFFFF" stroke-width="3" stroke-linecap="round" stroke-linejoin="round" stroke-dasharray="4.0442,6.0663" d="
			M617.8,449.3c0,35.4,16.7,48.6,37.3,48.6c20.6,0,37.4-13.2,37.4-48.6s-16.7-71.7-37.4-71.7C634.5,377.6,617.8,413.9,617.8,449.3z"
			/>
	</g>
	<g>
		
			<path fill="none" stroke="#FFFFFF" stroke-width="3" stroke-linecap="round" stroke-linejoin="round" stroke-dasharray="3.98,5.97" d="
			M57.3,448c0,31.4,14.9,43.2,33.2,43.2s33.2-11.8,33.2-43.2s-14.9-63.7-33.2-63.7S57.3,416.6,57.3,448z"/>
	</g>
	<g>
		<g>
			
				<line fill="none" stroke="#FFFFFF" stroke-width="3" stroke-linecap="round" stroke-linejoin="round" x1="655.2" y1="440.7" x2="655.2" y2="442.7"/>
			
				<line fill="none" stroke="#FFFFFF" stroke-width="3" stroke-linecap="round" stroke-linejoin="round" stroke-dasharray="4.0785,6.1177" x1="655.2" y1="448.8" x2="655.2" y2="547.7"/>
			
				<line fill="none" stroke="#FFFFFF" stroke-width="3" stroke-linecap="round" stroke-linejoin="round" x1="655.2" y1="550.8" x2="655.2" y2="552.8"/>
		</g>
	</g>
	<g>
		<g>
			
				<line fill="none" stroke="#FFFFFF" stroke-width="3" stroke-linecap="round" stroke-linejoin="round" x1="720.5" y1="416.6" x2="720.5" y2="418.6"/>
			
				<line fill="none" stroke="#FFFFFF" stroke-width="3" stroke-linecap="round" stroke-linejoin="round" stroke-dasharray="3.8868,5.8302" x1="720.5" y1="424.4" x2="720.5" y2="547.8"/>
			
				<line fill="none" stroke="#FFFFFF" stroke-width="3" stroke-linecap="round" stroke-linejoin="round" x1="720.5" y1="550.8" x2="720.5" y2="552.8"/>
		</g>
	</g>
	<g>
		<g>
			
				<line fill="none" stroke="#FFFFFF" stroke-width="3" stroke-linecap="round" stroke-linejoin="round" x1="1078.3" y1="426.5" x2="1078.3" y2="428.5"/>
			
				<line fill="none" stroke="#FFFFFF" stroke-width="3" stroke-linecap="round" stroke-linejoin="round" stroke-dasharray="3.8803,5.8205" x1="1078.3" y1="434.3" x2="1078.3" y2="547.8"/>
			
				<line fill="none" stroke="#FFFFFF" stroke-width="3" stroke-linecap="round" stroke-linejoin="round" x1="1078.3" y1="550.8" x2="1078.3" y2="552.8"/>
		</g>
	</g>
	<g>
		<g>
			
				<line fill="none" stroke="#FFFFFF" stroke-width="3" stroke-linecap="round" stroke-linejoin="round" x1="1147.7" y1="446.6" x2="1147.7" y2="448.6"/>
			
				<line fill="none" stroke="#FFFFFF" stroke-width="3" stroke-linecap="round" stroke-linejoin="round" stroke-dasharray="3.8547,5.7821" x1="1147.7" y1="454.4" x2="1147.7" y2="547.9"/>
			
				<line fill="none" stroke="#FFFFFF" stroke-width="3" stroke-linecap="round" stroke-linejoin="round" x1="1147.7" y1="550.8" x2="1147.7" y2="552.8"/>
		</g>
	</g>
	<g>
		<g>
			
				<line fill="none" stroke="#FFFFFF" stroke-width="3" stroke-linecap="round" stroke-linejoin="round" x1="1022.9" y1="461.6" x2="1022.9" y2="463.6"/>
			
				<line fill="none" stroke="#FFFFFF" stroke-width="3" stroke-linecap="round" stroke-linejoin="round" stroke-dasharray="4.0521,6.0782" x1="1022.9" y1="469.7" x2="1022.9" y2="547.7"/>
			
				<line fill="none" stroke="#FFFFFF" stroke-width="3" stroke-linecap="round" stroke-linejoin="round" x1="1022.9" y1="550.8" x2="1022.9" y2="552.8"/>
		</g>
	</g>
	<g>
		
			<path fill="none" stroke="#FFFFFF" stroke-width="3" stroke-linecap="round" stroke-linejoin="round" stroke-dasharray="4.0443,6.0664" d="
			M6.4,470.5c0,27.4,12.9,37.6,28.9,37.6s28.9-10.2,28.9-37.6c0-27.4-12.9-55.5-28.9-55.5S6.4,443.2,6.4,470.5z"/>
	</g>
	<g>
		<g>
			
				<line fill="none" stroke="#FFFFFF" stroke-width="3" stroke-linecap="round" stroke-linejoin="round" x1="35.3" y1="461.6" x2="35.3" y2="463.6"/>
			
				<line fill="none" stroke="#FFFFFF" stroke-width="3" stroke-linecap="round" stroke-linejoin="round" stroke-dasharray="4.0521,6.0782" x1="35.3" y1="469.7" x2="35.3" y2="547.7"/>
			
				<line fill="none" stroke="#FFFFFF" stroke-width="3" stroke-linecap="round" stroke-linejoin="round" x1="35.3" y1="550.7" x2="35.3" y2="552.7"/>
		</g>
	</g>
	<g>
		<g>
			
				<line fill="none" stroke="#FFFFFF" stroke-width="3" stroke-linecap="round" stroke-linejoin="round" x1="90.5" y1="437.8" x2="90.5" y2="439.8"/>
			
				<line fill="none" stroke="#FFFFFF" stroke-width="3" stroke-linecap="round" stroke-linejoin="round" stroke-dasharray="3.8605,5.7907" x1="90.5" y1="445.5" x2="90.5" y2="548.8"/>
			
				<line fill="none" stroke="#FFFFFF" stroke-width="3" stroke-linecap="round" stroke-linejoin="round" x1="90.5" y1="551.7" x2="90.5" y2="553.7"/>
		</g>
	</g>
</g>
<g id="Layer_5">
	<g>
		<path fill="none" stroke="#3A8C34" stroke-width="2" stroke-linecap="round" stroke-linejoin="round" stroke-miterlimit="10" d="
			M429.2,359.6l-55.2,26.5L429.2,359.6z"/>
		
			<polygon fill="none" stroke="#3A8C34" stroke-width="2" stroke-linecap="round" stroke-linejoin="round" stroke-miterlimit="10" points="
			429.2,359.6 484.4,386.1 484.4,407.8 373.9,407.8 373.9,386.1 		"/>
		
			<rect x="377.9" y="407.8" fill="none" stroke="#3A8C34" stroke-width="2" stroke-linecap="round" stroke-linejoin="round" stroke-miterlimit="10" width="6.5" height="55.2"/>
		
			<rect x="473.9" y="407.8" fill="none" stroke="#3A8C34" stroke-width="2" stroke-linecap="round" stroke-linejoin="round" stroke-miterlimit="10" width="6.5" height="55.2"/>
		
			<rect x="372.9" y="463" fill="#D8EDD7" stroke="#3A8C34" stroke-width="2" stroke-linecap="round" stroke-linejoin="round" stroke-miterlimit="10" width="112.5" height="89.8"/>
		
			<line fill="none" stroke="#3A8C34" stroke-width="0.75" stroke-linecap="round" stroke-linejoin="round" stroke-miterlimit="10" x1="373.9" y1="386.1" x2="484.4" y2="386.1"/>
	</g>
	<g>
		<path fill="none" stroke="#3A8C34" stroke-width="2" stroke-linecap="round" stroke-linejoin="round" stroke-miterlimit="10" d="
			M683.5,508.1c-3.7,3.3-6.4,8.7-6.4,16.6c0,5.1,0.8,9.8,2.2,13.8h-26.3v-16h-8.3c-4.4,0-8,3.6-8,8c0,4.4,3.6,8,8,8
			c2,0,3.8-0.7,5.3-2l0,5.1h30.6c3,6.3,7.6,10,12.9,10v-31.1h13.3c0-9.8-8-17.8-17.8-17.8c-3.5,0-6.8,1-9.5,2.8L683.5,508.1z"/>
		
			<path fill="#D8EDD7" stroke="#3A8C34" stroke-width="2" stroke-linecap="round" stroke-linejoin="round" stroke-miterlimit="10" d="
			M660.5,546c-1.1,0-1.9-1-1.9-2.3s0.9-2.3,1.9-2.3H676c1.1,0,1.9,1,1.9,2.3S677,546,676,546c1.1,0,1.9,1,1.9,2.3s-0.9,2.3-1.9,2.3
			c1.1,0,1.9,1,1.9,2.3s-0.9,2.3-1.9,2.3h-15.5c-1.1,0-1.9-1-1.9-2.3s0.9-2.3,1.9-2.3c-1.1,0-1.9-1-1.9-2.3S659.4,546,660.5,546z"/>
		<circle fill="#3A8C34" cx="693.5" cy="513.9" r="1.2"/>
		
			<line fill="none" stroke="#3A8C34" stroke-width="0.75" stroke-linecap="round" stroke-linejoin="round" stroke-miterlimit="10" x1="660.5" y1="546" x2="676" y2="546"/>
		
			<line fill="none" stroke="#3A8C34" stroke-width="0.75" stroke-linecap="round" stroke-linejoin="round" stroke-miterlimit="10" x1="660.5" y1="550.6" x2="676" y2="550.6"/>
	</g>
	<g>
		<path fill="#FFFFFF" stroke="#000000" stroke-width="2" stroke-linejoin="round" stroke-miterlimit="10" d="M763.8,506.4"/>
		<path fill="none" stroke="#3A8C34" stroke-width="2" stroke-linecap="round" stroke-linejoin="round" stroke-miterlimit="10" d="
			M767.4,506.4c-15.8,0-15.6,18.2-15.6,18.2c0,5.1,0.8,9.8,2.2,13.8h-26.3v-16h-8.3c-4.4,0-8,3.6-8,8c0,4.4,3.6,8,8,8
			c2,0,3.8-0.7,5.3-2l0,5.1h30.6c3,6.3,7.6,10,12.9,10V524c21.4-3.3,11.7-17.6,11.7-17.6l-4.3-6.7l-1.3,6.7H767.4z"/>
		
			<path fill="#D8EDD7" stroke="#3A8C34" stroke-width="2" stroke-linecap="round" stroke-linejoin="round" stroke-miterlimit="10" d="
			M735.3,546c-1.1,0-1.9-1-1.9-2.3s0.9-2.3,1.9-2.3h15.5c1.1,0,1.9,1,1.9,2.3s-0.9,2.3-1.9,2.3c1.1,0,1.9,1,1.9,2.3
			s-0.9,2.3-1.9,2.3c1.1,0,1.9,1,1.9,2.3s-0.9,2.3-1.9,2.3h-15.5c-1.1,0-1.9-1-1.9-2.3s0.9-2.3,1.9-2.3c-1.1,0-1.9-1-1.9-2.3
			S734.3,546,735.3,546z"/>
		<circle fill="#3A8C34" cx="768.7" cy="514.3" r="1.2"/>
		
			<line fill="none" stroke="#3A8C34" stroke-width="0.75" stroke-linecap="round" stroke-linejoin="round" stroke-miterlimit="10" x1="735.3" y1="546" x2="750.8" y2="546"/>
		
			<line fill="none" stroke="#3A8C34" stroke-width="0.75" stroke-linecap="round" stroke-linejoin="round" stroke-miterlimit="10" x1="735.3" y1="550.6" x2="750.8" y2="550.6"/>
	</g>
	<path fill="none" stroke="#3A8C34" stroke-width="2" stroke-linecap="round" stroke-linejoin="round" stroke-miterlimit="10" d="
		M197,422.5l-77.3,32.9c-9,3.8-19.3-0.4-23.1-9.3l-0.1-0.3c-4.3-10.2,0.4-21.9,10.6-26.2l90-38.3"/>
	
		<line fill="none" stroke="#3A8C34" stroke-width="0.75" stroke-linecap="round" stroke-linejoin="round" stroke-miterlimit="10" x1="159.2" y1="397.3" x2="174" y2="432.3"/>
	<path fill="none" stroke="#3A8C34" stroke-width="2" stroke-linecap="round" stroke-linejoin="round" stroke-miterlimit="10" d="
		M186.3,478.9l-66.5,28.3c-9,3.8-19.3-0.4-23.1-9.3l-0.1-0.3c-4.3-10.2,0.4-21.9,10.6-26.2l62.2-26.5c10.2-4.3,21.9,0.4,26.2,10.6
		l0.1,0.3C199.4,464.7,195.3,475.1,186.3,478.9z"/>
	
		<line fill="none" stroke="#3A8C34" stroke-width="0.75" stroke-linecap="round" stroke-linejoin="round" stroke-miterlimit="10" x1="126.4" y1="463.1" x2="105.7" y2="455.2"/>
	
		<line fill="none" stroke="#3A8C34" stroke-width="0.75" stroke-linecap="round" stroke-linejoin="round" stroke-miterlimit="10" x1="163.8" y1="436.6" x2="184.6" y2="444.7"/>
	
		<line fill="none" stroke="#3A8C34" stroke-width="0.75" stroke-linecap="round" stroke-linejoin="round" stroke-miterlimit="10" x1="180.7" y1="481.3" x2="165.8" y2="446.3"/>
	
		<line fill="none" stroke="#3A8C34" stroke-width="0.75" stroke-linecap="round" stroke-linejoin="round" stroke-miterlimit="10" x1="129.6" y1="503" x2="114.7" y2="468.1"/>
	<path fill="none" stroke="#3A8C34" stroke-width="2" stroke-linecap="round" stroke-linejoin="round" stroke-miterlimit="10" d="
		M113.2,560.4c2.2,0,4.4-0.5,6.6-1.4l66.5-28.3c9-3.8,13.1-14.2,9.3-23.1l-0.1-0.3c-4.3-10.2-16.1-14.9-26.2-10.6L109,522.2
		c-1.8,0.8-3,2.6-3,4.6v13.9c0,2.8-2.2,5-5,5h-7.3c-2.8,0-5,2.2-5,5v4.7c0,2.8,2.2,5,5,5L113.2,560.4"/>
	
		<line fill="none" stroke="#3A8C34" stroke-width="0.75" stroke-linecap="round" stroke-linejoin="round" stroke-miterlimit="10" x1="126.4" y1="514.8" x2="105.7" y2="507"/>
	
		<line fill="none" stroke="#3A8C34" stroke-width="0.75" stroke-linecap="round" stroke-linejoin="round" stroke-miterlimit="10" x1="163.8" y1="488.4" x2="184.6" y2="496.5"/>
	
		<line fill="none" stroke="#3A8C34" stroke-width="0.75" stroke-linecap="round" stroke-linejoin="round" stroke-miterlimit="10" x1="180.7" y1="533" x2="165.8" y2="498.1"/>
	
		<line fill="none" stroke="#3A8C34" stroke-width="0.75" stroke-linecap="round" stroke-linejoin="round" stroke-miterlimit="10" x1="129.6" y1="554.8" x2="114.7" y2="519.8"/>
	
		<line fill="none" stroke="#3A8C34" stroke-width="0.75" stroke-linecap="round" stroke-linejoin="round" stroke-miterlimit="10" x1="128.7" y1="451.6" x2="113.8" y2="416.6"/>
	
		<line fill="none" stroke="#3A8C34" stroke-width="2" stroke-linecap="round" stroke-linejoin="round" stroke-miterlimit="10" x1="207.5" y1="378" x2="207.5" y2="424.5"/>
	
		<line fill="none" stroke="#3A8C34" stroke-width="2" stroke-linecap="round" stroke-linejoin="round" stroke-miterlimit="10" x1="197" y1="424.5" x2="197" y2="378"/>
	<path fill="none" stroke="#3A8C34" stroke-width="2" stroke-linecap="round" stroke-linejoin="round" stroke-miterlimit="10" d="
		M197,378c0-2.9,2.3-4.2,5.2-4.2c2.9,0,5.2,1.3,5.2,4.2"/>
	<path fill="none" stroke="#3A8C34" stroke-width="2" stroke-linecap="round" stroke-linejoin="round" stroke-miterlimit="10" d="
		M197,424.5c0,2.9,2.3,4.2,5.2,4.2c2.9,0,5.2-1.3,5.2-4.2"/>
	<path fill="none" stroke="#3A8C34" stroke-width="2" stroke-linecap="round" stroke-linejoin="round" stroke-miterlimit="10" d="
		M264.7,324l-55.3,26.5L264.7,324z"/>
	
		<polygon fill="none" stroke="#3A8C34" stroke-width="2" stroke-linecap="round" stroke-linejoin="round" stroke-miterlimit="10" points="
		264.7,324 320,350.5 320,372.2 209.5,372.2 209.5,350.5 	"/>
	
		<rect x="213.5" y="372.2" fill="none" stroke="#3A8C34" stroke-width="2" stroke-linecap="round" stroke-linejoin="round" stroke-miterlimit="10" width="6.5" height="68.4"/>
	
		<rect x="309.5" y="372.2" fill="none" stroke="#3A8C34" stroke-width="2" stroke-linecap="round" stroke-linejoin="round" stroke-miterlimit="10" width="6.5" height="68.4"/>
	
		<rect x="208.5" y="440.7" fill="#D8EDD7" stroke="#3A8C34" stroke-width="2" stroke-linecap="round" stroke-linejoin="round" stroke-miterlimit="10" width="112.5" height="112.1"/>
	<g>
		<polyline fill="#D8EDD7" stroke="#3A8C34" stroke-width="2" stroke-miterlimit="10" points="304.7,538 304.7,561.5 296.7,561.5 
			296.7,538 		"/>
		
			<polyline fill="none" stroke="#3A8C34" stroke-width="2" stroke-linecap="round" stroke-linejoin="round" stroke-miterlimit="10" points="
			296.7,511.5 296.7,502.6 304.7,502.6 304.7,511.5 		"/>
		
			<polygon fill="#D8EDD7" stroke="#3A8C34" stroke-width="2" stroke-linecap="round" stroke-linejoin="round" stroke-miterlimit="10" points="
			325.7,538 301.2,538 293.2,538 275.7,538 275.7,511.5 293.2,511.5 301.2,511.5 325.7,511.5 		"/>
		
			<line fill="none" stroke="#3A8C34" stroke-width="0.75" stroke-linecap="round" stroke-linejoin="round" stroke-miterlimit="10" x1="285.1" y1="521.8" x2="316.3" y2="521.8"/>
		
			<line fill="none" stroke="#3A8C34" stroke-width="0.75" stroke-linecap="round" stroke-linejoin="round" stroke-miterlimit="10" x1="285.1" y1="526.3" x2="316.3" y2="526.3"/>
	</g>
	
		<line fill="none" stroke="#3A8C34" stroke-width="0.75" stroke-linecap="round" stroke-linejoin="round" stroke-miterlimit="10" x1="208.5" y1="457.8" x2="281" y2="457.8"/>
	
		<line fill="none" stroke="#3A8C34" stroke-width="0.75" stroke-linecap="round" stroke-linejoin="round" stroke-miterlimit="10" x1="208.5" y1="449.2" x2="288.9" y2="449.2"/>
	
		<line fill="none" stroke="#3A8C34" stroke-width="0.75" stroke-linecap="round" stroke-linejoin="round" stroke-miterlimit="10" x1="208.5" y1="475" x2="263.2" y2="475"/>
	
		<line fill="none" stroke="#3A8C34" stroke-width="0.75" stroke-linecap="round" stroke-linejoin="round" stroke-miterlimit="10" x1="208.5" y1="466.4" x2="272.2" y2="466.4"/>
	
		<line fill="none" stroke="#3A8C34" stroke-width="0.75" stroke-linecap="round" stroke-linejoin="round" stroke-miterlimit="10" x1="208.5" y1="483.6" x2="254.3" y2="483.6"/>
	
		<line fill="none" stroke="#3A8C34" stroke-width="0.75" stroke-linecap="round" stroke-linejoin="round" stroke-miterlimit="10" x1="208.5" y1="500.7" x2="236.4" y2="500.7"/>
	
		<line fill="none" stroke="#3A8C34" stroke-width="0.75" stroke-linecap="round" stroke-linejoin="round" stroke-miterlimit="10" x1="208.5" y1="492.1" x2="245.1" y2="492.1"/>
	
		<line fill="none" stroke="#3A8C34" stroke-width="0.75" stroke-linecap="round" stroke-linejoin="round" stroke-miterlimit="10" x1="208.5" y1="517.9" x2="217.6" y2="517.9"/>
	
		<line fill="none" stroke="#3A8C34" stroke-width="0.75" stroke-linecap="round" stroke-linejoin="round" stroke-miterlimit="10" x1="208.5" y1="509.3" x2="226.8" y2="509.3"/>
	
		<line fill="none" stroke="#3A8C34" stroke-width="0.75" stroke-linecap="round" stroke-linejoin="round" stroke-miterlimit="10" x1="209.5" y1="350.5" x2="320" y2="350.5"/>
	<g>
		
			<path fill="#FFFFFF" stroke="#3A8C34" stroke-width="2" stroke-linecap="round" stroke-linejoin="round" stroke-miterlimit="10" d="
			M549.8,324l-55.3,26.5L549.8,324z"/>
		
			<polyline fill="none" stroke="#3A8C34" stroke-width="2" stroke-linecap="round" stroke-linejoin="round" stroke-miterlimit="10" points="
			549.8,324 605.1,350.5 605.1,372.2 494.6,372.2 494.6,350.5 		"/>
		
			<rect x="498.6" y="372.2" fill="none" stroke="#3A8C34" stroke-width="2" stroke-linecap="round" stroke-linejoin="round" stroke-miterlimit="10" width="6.5" height="68.4"/>
		
			<rect x="594.6" y="372.2" fill="none" stroke="#3A8C34" stroke-width="2" stroke-linecap="round" stroke-linejoin="round" stroke-miterlimit="10" width="6.5" height="68.4"/>
		
			<polygon fill="#D8EDD7" stroke="#3A8C34" stroke-width="2" stroke-linecap="round" stroke-linejoin="round" stroke-miterlimit="10" points="
			606.1,440.7 606.1,552.8 493.6,552.8 493.6,440.7 555.1,440.7 555.1,456.6 591.6,456.6 591.6,440.7 		"/>
		
			<line fill="none" stroke="#3A8C34" stroke-width="0.75" stroke-linecap="round" stroke-linejoin="round" stroke-miterlimit="10" x1="493.6" y1="457.8" x2="555.1" y2="457.8"/>
		
			<line fill="none" stroke="#3A8C34" stroke-width="0.75" stroke-linecap="round" stroke-linejoin="round" stroke-miterlimit="10" x1="493.6" y1="449.2" x2="555.1" y2="449.2"/>
		
			<line fill="none" stroke="#3A8C34" stroke-width="0.75" stroke-linecap="round" stroke-linejoin="round" stroke-miterlimit="10" x1="493.6" y1="475" x2="548.2" y2="475"/>
		
			<line fill="none" stroke="#3A8C34" stroke-width="0.75" stroke-linecap="round" stroke-linejoin="round" stroke-miterlimit="10" x1="493.6" y1="466.4" x2="555.1" y2="466.4"/>
		
			<line fill="none" stroke="#3A8C34" stroke-width="0.75" stroke-linecap="round" stroke-linejoin="round" stroke-miterlimit="10" x1="493.6" y1="483.6" x2="539.3" y2="483.6"/>
		
			<line fill="none" stroke="#3A8C34" stroke-width="0.75" stroke-linecap="round" stroke-linejoin="round" stroke-miterlimit="10" x1="493.6" y1="500.7" x2="521.5" y2="500.7"/>
		
			<line fill="none" stroke="#3A8C34" stroke-width="0.75" stroke-linecap="round" stroke-linejoin="round" stroke-miterlimit="10" x1="493.6" y1="492.1" x2="530.1" y2="492.1"/>
		
			<line fill="none" stroke="#3A8C34" stroke-width="0.75" stroke-linecap="round" stroke-linejoin="round" stroke-miterlimit="10" x1="493.6" y1="517.9" x2="502.7" y2="517.9"/>
		
			<line fill="none" stroke="#3A8C34" stroke-width="0.75" stroke-linecap="round" stroke-linejoin="round" stroke-miterlimit="10" x1="493.6" y1="509.3" x2="511.9" y2="509.3"/>
		
			<line fill="none" stroke="#3A8C34" stroke-width="0.75" stroke-linecap="round" stroke-linejoin="round" stroke-miterlimit="10" x1="494.6" y1="350.5" x2="605.1" y2="350.5"/>
	</g>
	
		<path fill="#D8EDD7" stroke="#3A8C34" stroke-width="2" stroke-linecap="round" stroke-linejoin="round" stroke-miterlimit="10" d="
		M493.6,490.3c-3.9,2.4-10.6,4.8-22.2,7c-16.9,3.3-39.3,6-63.2,6c-23.9,0-46.3-2.8-63.2-6c-11.9-2.3-20.1-4.8-23.9-7.2l0.2-3.9
		c2.9,2.1,9.4,5.1,23,7.7c16.8,3.2,39.1,6,62.9,6s46.1-2.8,62.9-6c13.8-2.7,20.3-5.7,23.1-7.8L493.6,490.3z"/>
	
		<path fill="#D8EDD7" stroke="#3A8C34" stroke-width="2" stroke-linecap="round" stroke-linejoin="round" stroke-miterlimit="10" d="
		M493.6,452.5c-3.9,2.4-10.6,4.8-22.2,7c-16.9,3.3-39.3,6-63.2,6c-23.9,0-46.3-2.8-63.2-6c-11.9-2.3-20.1-4.8-23.9-7.2l0.2-3.9
		c2.9,2.1,9.4,5.1,23,7.7c16.8,3.2,39.1,6,62.9,6s46.1-2.8,62.9-6c13.8-2.7,20.3-5.7,23.1-7.8L493.6,452.5z"/>
	
		<path fill="none" stroke="#3A8C34" stroke-width="0.75" stroke-linecap="round" stroke-linejoin="round" stroke-miterlimit="10" d="
		M387,476.5c0,0-4.3-1-4.3,1.6s2.5,6.5,4.3,5.8C388.8,483.1,390.6,479.2,387,476.5z"/>
	
		<path fill="none" stroke="#3A8C34" stroke-width="0.75" stroke-linecap="round" stroke-linejoin="round" stroke-miterlimit="10" d="
		M433.3,514.7c0,0-3,0.1-1.9,1.7c1.1,1.6,4.9,3.2,5.4,1.8C437.9,514.7,436.9,514.9,433.3,514.7z"/>
	
		<path fill="none" stroke="#3A8C34" stroke-width="0.75" stroke-linecap="round" stroke-linejoin="round" stroke-miterlimit="10" d="
		M414,541.1c0,0-2.1,2.1-0.2,2.5c1.9,0.4,5.8-1.1,5.1-2.4C417.3,538,416.7,538.8,414,541.1z"/>
	
		<path fill="none" stroke="#3A8C34" stroke-width="0.75" stroke-linecap="round" stroke-linejoin="round" stroke-miterlimit="10" d="
		M396,468.6c0,0-2.8-0.6-2.8,1c0,1.6,1.6,4.2,2.8,3.7C397.2,472.9,398.4,470.4,396,468.6z"/>
	
		<path fill="none" stroke="#3A8C34" stroke-width="0.75" stroke-linecap="round" stroke-linejoin="round" stroke-miterlimit="10" d="
		M443.6,471c0,0-8.2,0.8-7.6,2.8c0.6,2,1.4,5.7,3.8,4.7S447.1,470.5,443.6,471z"/>
	
		<path fill="none" stroke="#3A8C34" stroke-width="0.75" stroke-linecap="round" stroke-linejoin="round" stroke-miterlimit="10" d="
		M428.7,487.6c0,0-1.2,5.6,0.8,5.6c2.1,0,5.9,0.4,5.6-2.3S429.2,484.2,428.7,487.6z"/>
	
		<path fill="none" stroke="#3A8C34" stroke-width="0.75" stroke-linecap="round" stroke-linejoin="round" stroke-miterlimit="10" d="
		M469.9,477c0,0,3.4,4.5,4.8,3c1.4-1.5,4.1-4.2,1.9-5.7C474.4,472.8,467.6,474.4,469.9,477z"/>
	
		<path fill="none" stroke="#3A8C34" stroke-width="0.75" stroke-linecap="round" stroke-linejoin="round" stroke-miterlimit="10" d="
		M391.2,512.8c0,0-0.8-3.4,1.2-3.4c2,0,5.1,2,4.5,3.4C396.4,514.2,393.4,515.6,391.2,512.8z"/>
	
		<path fill="none" stroke="#3A8C34" stroke-width="0.75" stroke-linecap="round" stroke-linejoin="round" stroke-miterlimit="10" d="
		M406,480.7c0,0,0.1-3,1.7-1.9c1.6,1.1,3.2,4.9,1.8,5.4C406,485.3,406.1,484.3,406,480.7z"/>
	
		<path fill="none" stroke="#3A8C34" stroke-width="0.75" stroke-linecap="round" stroke-linejoin="round" stroke-miterlimit="10" d="
		M392.7,490.1c0,0,2.1-2.1,2.5-0.2c0.4,1.9-1.1,5.8-2.4,5.1C389.6,493.4,390.4,492.8,392.7,490.1z"/>
	
		<path fill="none" stroke="#3A8C34" stroke-width="0.75" stroke-linecap="round" stroke-linejoin="round" stroke-miterlimit="10" d="
		M403.6,520.6c0,0-0.6-2.8,1-2.8c1.6,0,4.2,1.6,3.7,2.8S405.4,522.9,403.6,520.6z"/>
	
		<path fill="none" stroke="#3A8C34" stroke-width="0.75" stroke-linecap="round" stroke-linejoin="round" stroke-miterlimit="10" d="
		M382.1,528.9c0,0,0.8-8.2,2.8-7.6c2,0.6,5.7,1.4,4.7,3.8C388.5,527.5,381.5,532.3,382.1,528.9z"/>
	
		<path fill="none" stroke="#3A8C34" stroke-width="0.75" stroke-linecap="round" stroke-linejoin="round" stroke-miterlimit="10" d="
		M417.3,508.9c0,0,5.6-1.2,5.6,0.8c0,2.1,0.4,5.9-2.3,5.6S413.8,509.4,417.3,508.9z"/>
	<path fill="#D8EDD7" stroke="#3A8C34" stroke-width="2" stroke-miterlimit="10" d="M587.9,436.8h3.7v119h-3.7v-13.2h-29v13.2h-3.7
		v-119h3.7v19.8h29V436.8z M587.9,478.3h-29v5.7h29V478.3z M587.9,487.5h-29v5.7h29V487.5z M587.9,460.1h-29v5.7h29V460.1z
		 M587.9,469.2h-29v5.7h29V469.2z M587.9,515h-29v5.7h29V515z M587.9,524.1h-29v5.7h29V524.1z M587.9,533.3h-29v5.7h29V533.3z
		 M587.9,496.7h-29v5.7h29V496.7z M587.9,505.9h-29v5.7h29V505.9z"/>
	<g>
		
			<rect x="982.9" y="412.5" fill="#D8EDD7" stroke="#3A8C34" stroke-width="2" stroke-linecap="round" stroke-linejoin="round" stroke-miterlimit="10" width="10.4" height="15.7"/>
		
			<rect x="817.7" y="412.5" fill="#D8EDD7" stroke="#3A8C34" stroke-width="2" stroke-linecap="round" stroke-linejoin="round" stroke-miterlimit="10" width="10.4" height="15.7"/>
		
			<rect x="982.9" y="492.3" fill="#D8EDD7" stroke="#3A8C34" stroke-width="2" stroke-linecap="round" stroke-linejoin="round" stroke-miterlimit="10" width="10.4" height="62.3"/>
		
			<rect x="817.7" y="492.3" fill="#D8EDD7" stroke="#3A8C34" stroke-width="2" stroke-linecap="round" stroke-linejoin="round" stroke-miterlimit="10" width="10.4" height="62.3"/>
		
			<rect x="915.9" y="527.4" fill="none" stroke="#3A8C34" stroke-width="2" stroke-linecap="round" stroke-linejoin="round" stroke-miterlimit="10" width="38.1" height="4.8"/>
		
			<rect x="857" y="527.4" fill="none" stroke="#3A8C34" stroke-width="2" stroke-linecap="round" stroke-linejoin="round" stroke-miterlimit="10" width="38.1" height="4.8"/>
		
			<rect x="819.6" y="428.2" fill="none" stroke="#3A8C34" stroke-width="2" stroke-linecap="round" stroke-linejoin="round" stroke-miterlimit="10" width="6.5" height="64.1"/>
		
			<rect x="984.9" y="428.2" fill="none" stroke="#3A8C34" stroke-width="2" stroke-linecap="round" stroke-linejoin="round" stroke-miterlimit="10" width="6.5" height="64.1"/>
		
			<rect x="828.1" y="414.1" fill="none" stroke="#3A8C34" stroke-width="2" stroke-linecap="round" stroke-linejoin="round" stroke-miterlimit="10" width="154.9" height="6.2"/>
		
			<line fill="none" stroke="#3A8C34" stroke-width="0.75" stroke-linecap="round" stroke-linejoin="round" stroke-miterlimit="10" x1="952.9" y1="527.4" x2="952.9" y2="421.1"/>
		
			<line fill="none" stroke="#3A8C34" stroke-width="0.75" stroke-linecap="round" stroke-linejoin="round" stroke-miterlimit="10" x1="916.9" y1="421.1" x2="916.9" y2="527.4"/>
		
			<line fill="none" stroke="#3A8C34" stroke-width="0.75" stroke-linecap="round" stroke-linejoin="round" stroke-miterlimit="10" x1="894.1" y1="527.4" x2="894.1" y2="421.1"/>
		
			<line fill="none" stroke="#3A8C34" stroke-width="0.75" stroke-linecap="round" stroke-linejoin="round" stroke-miterlimit="10" x1="858.1" y1="421.1" x2="858.1" y2="527.4"/>
	</g>
	<g>
		
			<polyline fill="#D8EDD7" stroke="#3A8C34" stroke-width="2" stroke-linecap="round" stroke-linejoin="round" stroke-miterlimit="10" points="
			1053.1,540.1 956,553.7 955.4,549.5 1052.7,535.8 1053.1,540.1 		"/>
		
			<polyline fill="#D8EDD7" stroke="#3A8C34" stroke-width="2" stroke-linecap="round" stroke-linejoin="round" stroke-miterlimit="10" points="
			1073.1,537.2 1173.8,523.1 1173.2,518.9 1073.6,532.9 1073.1,537.2 		"/>
		
			<path fill="#D8EDD7" stroke="#3A8C34" stroke-width="2" stroke-linecap="round" stroke-linejoin="round" stroke-miterlimit="10" d="
			M972.2,547.1c-10.8-0.1-12.3-21.1-12.3-21.1c-7,1-6.3,3.4-5.3,10.5c1,7.1,1.5,12.9,8.5,11.9L972.2,547.1z"/>
		
			<path fill="#D8EDD7" stroke="#3A8C34" stroke-width="2" stroke-linecap="round" stroke-linejoin="round" stroke-miterlimit="10" d="
			M1157.4,521.1c10.3-3.1,6-23.7,6-23.7c7-1,7,1.5,8,8.6c1,7.1,2.1,12.8-4.9,13.8L1157.4,521.1z"/>
		
			<rect x="988.3" y="534.2" transform="matrix(0.9903 -0.1392 0.1392 0.9903 -65.4264 143.0963)" fill="#D8EDD7" stroke="#3A8C34" stroke-width="2" stroke-linecap="round" stroke-linejoin="round" stroke-miterlimit="10" width="4.3" height="10.3"/>
		
			<rect x="1134.5" y="513.7" transform="matrix(0.9903 -0.1392 0.1392 0.9903 -61.1431 163.2475)" fill="#D8EDD7" stroke="#3A8C34" stroke-width="2" stroke-linecap="round" stroke-linejoin="round" stroke-miterlimit="10" width="4.3" height="10.3"/>
		
			<circle fill="none" stroke="#3A8C34" stroke-width="0.75" stroke-linecap="round" stroke-linejoin="round" stroke-miterlimit="10" cx="1063" cy="536.8" r="4.3"/>
		<path fill="none" stroke="#3A8C34" stroke-width="2" stroke-linecap="round" stroke-linejoin="round" stroke-miterlimit="10" d="
			M1073.5,530.9l-2,22.8h-17l-2-22.8c0-0.7,0.4-1.4,1.1-1.8l8.5-4.5c0.6-0.3,1.3-0.3,1.9,0l8.5,4.5
			C1073.1,529.5,1073.5,530.2,1073.5,530.9z"/>
	</g>
</g>
</svg>
