<?xml version="1.0" encoding="utf-8"?>
<!-- Generator: Adobe Illustrator 17.1.0, SVG Export Plug-In . SVG Version: 6.00 Build 0)  -->
<!DOCTYPE svg PUBLIC "-//W3C//DTD SVG 1.1//EN" "http://www.w3.org/Graphics/SVG/1.1/DTD/svg11.dtd">
<svg version="1.1" xmlns="http://www.w3.org/2000/svg" xmlns:xlink="http://www.w3.org/1999/xlink" x="0px" y="0px"
	 viewBox="0 0 75 75" enable-background="new 0 0 75 75" xml:space="preserve">
<g id="Layer_1" display="none">
	
		<image display="inline" overflow="visible" width="144" height="136" xlink:href="../../../../Desktop/Screen Shot 2015-06-14 at 6.04.44 PM.png"  transform="matrix(0.6529 0 0 0.6529 -7.8079 -6.9)">
	</image>
</g>
<g id="Layer_2">
	<g>
		<rect x="7.4" y="30.8" fill="none" stroke="#4F4F4F" stroke-width="4" stroke-miterlimit="10" width="40.5" height="8"/>
		<path fill="none" stroke="#4F4F4F" stroke-width="4" stroke-miterlimit="10" d="M11.4,30.8V26c0-9,7.3-15.2,16.2-15.2
			S43.9,17,43.9,26v4.8"/>
		<polygon fill="none" stroke="#4F4F4F" stroke-width="4" stroke-miterlimit="10" points="39.9,66 15.5,66 11.4,38.8 43.9,38.8 		
			"/>
		<path fill="none" stroke="#4F4F4F" stroke-width="4" stroke-miterlimit="10" d="M52.4,21.8c0,3.6,2.9,6.5,6.5,6.5s6.5-2.9,6.5-6.5
			v-4.2h-13V21.8z"/>
		<path fill="none" stroke="#4F4F4F" stroke-width="4" stroke-miterlimit="10" d="M67.6,52.9c0-4.8-3.9-8.6-8.6-8.6
			s-8.6,3.9-8.6,8.6V66h17.2V52.9z"/>
		<line fill="none" stroke="#4F4F4F" stroke-width="4" stroke-miterlimit="10" x1="58.9" y1="44.2" x2="58.9" y2="28.2"/>
	</g>
</g>
</svg>
