<?xml version="1.0" encoding="utf-8"?>
<!-- Generator: Adobe Illustrator 17.1.0, SVG Export Plug-In . SVG Version: 6.00 Build 0)  -->
<!DOCTYPE svg PUBLIC "-//W3C//DTD SVG 1.1//EN" "http://www.w3.org/Graphics/SVG/1.1/DTD/svg11.dtd">
<svg version="1.1" xmlns="http://www.w3.org/2000/svg" xmlns:xlink="http://www.w3.org/1999/xlink" x="0px" y="0px"
	 viewBox="0 0 75 75" enable-background="new 0 0 75 75" xml:space="preserve">
<g id="Layer_1" display="none">
	
		<image display="inline" overflow="visible" width="144" height="136" xlink:href="../../../../Desktop/Screen Shot 2015-06-14 at 6.04.44 PM.png"  transform="matrix(0.6529 0 0 0.6529 -7.8079 -6.9)">
	</image>
</g>
<g id="Layer_2">
	<path fill="#4F4F4F" d="M61.5,50.8c-1-0.2-7.8-2.6-14.2-5v-1.1c4.2-4.1,7.1-10.6,7.5-17.8c0-8.4,0-22.4-17.4-22.4S20,18.5,20,27.1
		c0.5,6.2,3.4,12.9,7.6,17.3v1.4c-6.4,2.3-13.1,4.7-14.2,5c-6.6,1.5-8.6,5.5-8.6,17.1v2.5h65.3v-2.5C70.1,56.3,68.1,52.3,61.5,50.8
		 M44,50c0.2,0.1,0.5,0.2,0.8,0.3l-7.3,7.3l-7.3-7.3c0.3-0.1,0.6-0.2,0.8-0.3l1.7-0.6v-1.2c1.5,0.7,3.1,1.1,4.8,1.1
		c1.7,0,3.3-0.4,4.8-1v1.1L44,50z M37.5,9.6c9.1,0,11.7,4,12.2,12.6l-5.5-0.8h-3.4L37.6,23l-2.8-1.6l-3.8,0l-5.8,0.9
		C25.8,13.5,28.4,9.6,37.5,9.6 M48.6,23.7c-0.1,4.1-1.4,5.8-4.4,5.8c-1,0-4-0.1-4.4-5.9L41,23l3.1,0L48.6,23.7z M35.6,23.7
		c-0.5,5.7-3.4,5.8-4.4,5.8c-3,0-4.4-1.8-4.5-5.8l4.5-0.7h3.2L35.6,23.7z M25.1,25.7c0.6,3.7,2.6,5.5,6,5.5c2.4,0,5.3-1.2,6-6.5
		l0.4,0.2l0.6-0.4c0.7,5.4,3.6,6.7,6,6.7c3.4,0,4.9-1.9,5.6-3.9c-0.7,8.9-6.5,16.9-12.3,16.9c-5.4,0-11.7-8.8-12.3-17.3
		C25.1,26.5,25.1,26.1,25.1,25.7 M10,65.4c0.3-8.7,1.9-9.1,4.6-9.7c1.6-0.3,9.5-3.2,13.9-4.8l9,9l9-9c4.4,1.6,12.3,4.5,13.9,4.8
		c2.7,0.6,4.3,1,4.6,9.7H10z"/>
	<rect x="94.5" y="8" fill="none" width="65.3" height="66"/>
</g>
</svg>
