<?xml version="1.0" encoding="utf-8"?>
<!-- Generator: Adobe Illustrator 19.0.0, SVG Export Plug-In . SVG Version: 6.00 Build 0)  -->
<svg version="1.1" id="Layer_1" xmlns="http://www.w3.org/2000/svg" xmlns:xlink="http://www.w3.org/1999/xlink" x="0px" y="0px"
	 viewBox="0 0 100 100" enable-background="new 0 0 100 100" xml:space="preserve">
<line id="XMLID_47_" fill="none" stroke="#36352B" stroke-width="4" stroke-linecap="round" stroke-linejoin="round" stroke-miterlimit="10" x1="6.4" y1="90.7" x2="93.6" y2="90.7"/>
<polygon id="XMLID_49_" fill="none" stroke="#36352B" stroke-width="4" stroke-linecap="round" stroke-linejoin="round" stroke-miterlimit="10" points="
	93.6,40.1 85.8,40.1 85.8,82.5 35.2,82.5 35.2,40.1 27.4,40.1 60.5,9.4 76.5,24.1 76.5,12 85.8,12 85.8,32.4 "/>
<path id="XMLID_52_" fill="none" stroke="#36352B" stroke-width="4" stroke-linecap="round" stroke-linejoin="round" stroke-miterlimit="10" d="
	M24.2,76.6"/>
<path id="XMLID_51_" fill="none" stroke="#36352B" stroke-width="4" stroke-linecap="round" stroke-linejoin="round" stroke-miterlimit="10" d="
	M20.9,78.1c0.7,0.3,1.5,0.5,2.3,0.5c3.3,0,5.9-2.6,5.9-5.9s-2.6-5.9-5.9-5.9c-0.8,0-1.5,0.1-2.2,0.4v0.1c-1.4-1.4-3.3-2.2-5.4-2.2
	c-4.2,0-7.6,3.4-7.6,7.6s3.4,7.6,7.6,7.6c2.1,0,4-0.9,5.4-2.2"/>
</svg>
