<?xml version="1.0" encoding="utf-8"?>
<!-- Generator: Adobe Illustrator 19.0.0, SVG Export Plug-In . SVG Version: 6.00 Build 0)  -->
<svg version="1.1" id="Layer_1" xmlns="http://www.w3.org/2000/svg" xmlns:xlink="http://www.w3.org/1999/xlink" x="0px" y="0px"
	 viewBox="0 0 100 100" enable-background="new 0 0 100 100" xml:space="preserve">
<path id="XMLID_2_" fill="none" stroke="#36352B" stroke-width="4" stroke-linecap="round" stroke-linejoin="round" stroke-miterlimit="10" d="
	M63,51.1H6.3c-1.1,0-2-0.9-2-2v-8.3c0-1.1,0.9-2,2-2H63c1.1,0,2,0.9,2,2v8.3C65,50.2,64.1,51.1,63,51.1z"/>
<path id="XMLID_3_" fill="none" stroke="#36352B" stroke-width="4" stroke-linecap="round" stroke-linejoin="round" stroke-miterlimit="10" d="
	M60.7,51.1h-52l3.9,38.8c0.3,3,2.8,5.3,5.9,5.3H51c3,0,5.6-2.3,5.9-5.3L60.7,51.1z"/>
<path id="XMLID_5_" fill="none" stroke="#36352B" stroke-width="4" stroke-linecap="round" stroke-linejoin="round" stroke-miterlimit="10" d="
	M9.7,38.8v-9c0-13.8,11.2-25,25-25s24.9,11.2,24.9,25v9"/>
<path id="XMLID_6_" fill="none" stroke="#36352B" stroke-width="4" stroke-linecap="round" stroke-linejoin="round" stroke-miterlimit="10" d="
	M95.7,79.8c0-9-6.2-16.3-13.8-16.3s-13.8,7.3-13.8,16.3v15.4h27.5V79.8H95.7z"/>
<path id="XMLID_7_" fill="none" stroke="#36352B" stroke-width="4" stroke-linecap="round" stroke-linejoin="round" stroke-miterlimit="10" d="
	M91.7,25.5c0,5.3-4.4,9.7-9.7,9.7s-9.7-4.3-9.7-9.7V20h19.5v5.5H91.7z"/>
<line id="XMLID_4_" fill="none" stroke="#36352B" stroke-width="4" stroke-linejoin="round" stroke-miterlimit="10" x1="81.9" y1="35.2" x2="81.9" y2="63.7"/>
</svg>
