<?xml version="1.0" encoding="utf-8"?>
<!-- Generator: Adobe Illustrator 19.0.0, SVG Export Plug-In . SVG Version: 6.00 Build 0)  -->
<svg version="1.1" id="Layer_1" xmlns="http://www.w3.org/2000/svg" xmlns:xlink="http://www.w3.org/1999/xlink" x="0px" y="0px"
	 viewBox="-524 226 150 150" style="enable-background:new -524 226 150 150;" xml:space="preserve">
<style type="text/css">
	.st0{fill:#FFFFFF;}
</style>
<g id="XMLID_15_">
	<path id="XMLID_21_" class="st0" d="M-443.8,294.2V294c0,0.1-0.1,0.1-0.1,0.2H-443.8z"/>
	<path id="XMLID_16_" class="st0" d="M-507.9,231.5c-5.7,0-10.2,4.5-10.2,10v119.1c0,5.5,4.6,10,10.2,10h117.8
		c5.6,0,10.2-4.5,10.2-10V241.4c0-5.5-4.6-10-10.2-10h-117.8V231.5z M-476.2,347.9h-20.9v-62.8h20.9V347.9z M-486.6,276.5h-0.1
		c-7,0-11.5-4.8-11.5-10.9s4.7-10.8,11.8-10.8s11.5,4.7,11.7,10.8C-474.8,271.7-479.4,276.5-486.6,276.5z M-400.9,347.9h-20.9v-33.6
		c0-8.4-3-14.2-10.6-14.2c-5.8,0-9.2,3.9-10.7,7.6c-0.6,1.4-0.7,3.2-0.7,5.1v35.1h-20.9c0,0,0.3-56.9,0-62.8h20.9v8.9
		c2.8-4.3,7.7-10.4,18.8-10.4c13.7,0,24,9,24,28.3v36H-400.9z"/>
</g>
</svg>
