<?xml version="1.0" encoding="utf-8"?>
<!-- Generator: Adobe Illustrator 19.0.0, SVG Export Plug-In . SVG Version: 6.00 Build 0)  -->
<svg version="1.1" id="Layer_1" xmlns="http://www.w3.org/2000/svg" xmlns:xlink="http://www.w3.org/1999/xlink" x="0px" y="0px"
	 viewBox="-524 226 150 150" style="enable-background:new -524 226 150 150;" xml:space="preserve">
<style type="text/css">
	.st0{fill:#FFFFFF;}
</style>
<path id="XMLID_154_" class="st0" d="M-387.1,231.5h-123.7c-4.2,0-7.7,3.4-7.7,7.7v123.7c0,4.2,3.4,7.7,7.7,7.7h66.6v-53.9h-18.2
	v-21h18.1v-15.5c0-18,11-27.7,27-27.7c7.7,0,14.3,0.6,16.2,0.8v18.8h-11.1c-8.7,0-10.4,4.1-10.4,10.2v13.4h20.8l-2.7,21h-18.1v53.9
	h35.4c4.2,0,7.7-3.4,7.7-7.7V239.1C-379.5,234.9-382.9,231.5-387.1,231.5z"/>
</svg>
