<?xml version="1.0" encoding="utf-8"?>
<!-- Generator: Adobe Illustrator 19.0.0, SVG Export Plug-In . SVG Version: 6.00 Build 0)  -->
<svg version="1.1" id="Layer_1" xmlns="http://www.w3.org/2000/svg" xmlns:xlink="http://www.w3.org/1999/xlink" x="0px" y="0px"
	 viewBox="-524 226 150 150" style="enable-background:new -524 226 150 150;" xml:space="preserve">
<style type="text/css">
	.st0{fill:#FFFFFF;}
</style>
<path id="XMLID_87_" class="st0" d="M-390.1,370.5c5.6,0,10.2-4.5,10.2-10V241.4c0-5.5-4.6-10-10.2-10h-117.8
	c-5.7,0-10.2,4.5-10.2,10v119.1c0,5.5,4.6,10,10.2,10l39.3-0.1c3.7,0.7,5-1.6,5-3.5c0-1.7-0.1-6.3-0.1-12.5
	c-20.4,4.4-24.7-9.8-24.7-9.8c-3.3-8.5-8.1-10.7-8.1-10.7c-6.6-4.5,0.5-4.5,0.5-4.5c7.3,0.5,11.2,7.5,11.2,7.5
	c6.5,11.2,17.1,8,21.3,6.1c0.7-4.7,2.6-8,4.6-9.8c-16.3-1.8-33.3-8.1-33.3-36.2c0-8,2.9-14.5,7.5-19.6c-0.8-1.9-3.3-9.3,0.7-19.4
	c0,0,6.1-2,20.1,7.5c5.8-1.6,12.1-2.4,18.3-2.5c6.2,0,12.5,0.8,18.3,2.5c14-9.5,20.1-7.5,20.1-7.5c4,10.1,1.5,17.5,0.7,19.4
	c4.7,5.1,7.5,11.7,7.5,19.6c0,28.1-17.1,34.3-33.4,36.1c2.6,2.3,5,6.7,5,13.6c0,9.8-0.1,17.7-0.1,20.1c0,2,1.3,4.2,5,3.5
	L-390.1,370.5z"/>
</svg>
