<?xml version="1.0" encoding="utf-8"?>
<!-- Generator: Adobe Illustrator 19.0.0, SVG Export Plug-In . SVG Version: 6.00 Build 0)  -->
<svg version="1.1" id="Layer_1" xmlns="http://www.w3.org/2000/svg" xmlns:xlink="http://www.w3.org/1999/xlink" x="0px" y="0px"
	 viewBox="-524 226 150 150" style="enable-background:new -524 226 150 150;" xml:space="preserve">
<style type="text/css">
	.st0{fill:#FFFFFF;}
</style>
<path id="XMLID_106_" class="st0" d="M-390.5,231.5h-117.8c-5.7,0-10.2,4.5-10.2,10v119.1c0,5.5,4.6,10,10.2,10h117.8
	c5.6,0,10.2-4.5,10.2-10V241.4C-380.3,235.9-384.9,231.5-390.5,231.5z M-411,285.5c0,0.8,0.1,1.7,0.1,2.6
	c0,26.2-19.9,56.4-56.4,56.4c-11.2,0-21.6-3.3-30.4-8.9c1.5,0.2,3.1,0.3,4.7,0.3c9.3,0,17.8-3.2,24.6-8.5c-8.7-0.2-16-5.9-18.5-13.8
	c1.2,0.2,2.5,0.4,3.7,0.4c1.8,0,3.5-0.2,5.2-0.7c-9.1-1.8-15.9-9.8-15.9-19.4c0-0.1,0-0.2,0-0.3c2.7,1.5,5.7,2.4,9,2.5
	c-5.3-3.6-8.8-9.6-8.8-16.5c0-3.6,1-7,2.7-10c9.8,12,24.4,19.9,40.8,20.7c-0.3-1.5-0.5-3-0.5-4.5c0-10.9,8.9-19.8,19.8-19.8
	c5.7,0,10.8,2.4,14.4,6.3c4.5-0.9,8.8-2.5,12.6-4.8c-1.5,4.6-4.6,8.5-8.7,11c4-0.5,7.8-1.5,11.4-3.1
	C-403.8,279.3-407.2,282.7-411,285.5z"/>
</svg>
